{
    "asset": {
        "generator": "COLLADA2GLTF",
        "version": "2.0"
    },
    "scene": 0,
    "scenes": [
        {
            "nodes": [
                0
            ]
        }
    ],
    "nodes": [
        {
            "mesh": 0,
            "matrix": [
                -0.2081778347492218,
                7.958683712061543e-11,
                -1.7726678848266602,
                0.0,
                -1.7726678848266602,
                -9.346485391192872e-12,
                0.2081778347492218,
                0.0,
                0.0,
                1.784850001335144,
                8.013377461590919e-11,
                0.0,
                0.0,
                0.0,
                0.0,
                1.0
            ]
        }
    ],
    "meshes": [
        {
            "primitives": [
                {
                    "attributes": {
                        "NORMAL": 1,
                        "POSITION": 2
                    },
                    "indices": 0,
                    "mode": 4,
                    "material": 0
                }
            ],
            "name": "ID5"
        }
    ],
    "accessors": [
        {
            "bufferView": 0,
            "byteOffset": 0,
            "componentType": 5123,
            "count": 2016,
            "max": [
                465
            ],
            "min": [
                0
            ],
            "type": "SCALAR"
        },
        {
            "bufferView": 1,
            "byteOffset": 0,
            "componentType": 5126,
            "count": 466,
            "max": [
                0.9924370050430298,
                0.9924370050430298,
                1.0
            ],
            "min": [
                -0.9974370002746582,
                -0.997655987739563,
                -1.0
            ],
            "type": "VEC3"
        },
        {
            "bufferView": 1,
            "byteOffset": 5592,
            "componentType": 5126,
            "count": 466,
            "max": [
                0.6957629919052124,
                0.5658379793167114,
                7.395989894866943
            ],
            "min": [
                -0.6957579851150513,
                -0.5658419728279114,
                -0.010731999762356282
            ],
            "type": "VEC3"
        }
    ],
    "materials": [
        {
            "pbrMetallicRoughness": {
                "baseColorFactor": [
                    0.8758620023727417,
                    0.8758620023727417,
                    0.8758620023727417,
                    1.0
                ],
                "metallicFactor": 0.0
            },
            "emissiveFactor": [
                0.0,
                0.0,
                0.0
            ],
            "name": "ID2"
        }
    ],
    "bufferViews": [
        {
            "buffer": 0,
            "byteOffset": 11184,
            "byteLength": 4032,
            "target": 34963
        },
        {
            "buffer": 0,
            "byteOffset": 0,
            "byteLength": 11184,
            "byteStride": 12,
            "target": 34962
        }
    ],
    "buffers": [
        {
            "byteLength": 15216,
            "uri": "data:application/octet-stream;base64,"
        }
    ]
}
